<svg xmlns="http://www.w3.org/2000/svg" version="1.1" xmlns:xlink="http://www.w3.org/1999/xlink" xmlns:svgjs="http://svgjs.dev/svgjs" width="2000" height="479" viewBox="0 0 2000 479"><g transform="matrix(1,0,0,1,-1.2121026308532237,-0.9449478780607592)"><svg viewBox="0 0 396 95" data-background-color="#ffffff" preserveAspectRatio="xMidYMid meet" height="479" width="2000" xmlns="http://www.w3.org/2000/svg" xmlns:xlink="http://www.w3.org/1999/xlink"><g id="tight-bounds" transform="matrix(1,0,0,1,0.23999641288423845,0.18741137456319734)"><svg viewBox="0 0 395.52 94.6251772508736" height="94.6251772508736" width="395.52"><g><svg viewBox="0 0 575.2378780242792 137.62132425531917" height="94.6251772508736" width="395.52"><g transform="matrix(1,0,0,1,0,19.02002382978724)"><svg viewBox="0 0 395.52 99.58127659574468" height="99.58127659574468" width="395.52"><g id="textblocktransform"><svg viewBox="0 0 395.52 99.58127659574468" height="99.58127659574468" width="395.52" id="textblock"><g><svg viewBox="0 0 395.52 99.58127659574468" height="99.58127659574468" width="395.52"><g transform="matrix(1,0,0,1,0,0)"><svg width="395.52" viewBox="3.950000047683716 -34.900001525878906 140.99000549316406 35.5" height="99.58127659574468" data-palette-color="#0080ff"><path d="M3.95 0L3.95-34.3 8.7-34.3 8.7-15.4 26.85-34.3 32.75-34.3 19.7-20.6 33.2 0 27.55 0 16.4-17.2 8.7-10 8.7 0 3.95 0ZM52.8 0.6Q44.65 0.6 40.17-3.88 35.7-8.35 35.7-17.15L35.7-17.15Q35.7-25.95 40.17-30.43 44.65-34.9 52.8-34.9L52.8-34.9Q61-34.9 65.47-30.43 69.95-25.95 69.95-17.15L69.95-17.15Q69.95-8.4 65.47-3.9 61 0.6 52.8 0.6L52.8 0.6ZM52.8-3.45Q58.75-3.45 61.9-6.68 65.05-9.9 65.05-16.95L65.05-16.95 65.05-17.15Q65-24.3 61.85-27.58 58.7-30.85 52.8-30.85L52.8-30.85Q46.95-30.85 43.8-27.58 40.65-24.3 40.6-17.15L40.6-17.15 40.6-16.95Q40.6-9.9 43.75-6.68 46.9-3.45 52.8-3.45L52.8-3.45ZM76.2 0L76.2-34.3 80.45-34.3 98.55-10.4 99.75-8.8 99.95-8.85 99.95-11.15 99.95-34.3 104.4-34.3 104.4 0 100.34 0 82.15-24.2 80.84-25.95 80.65-25.9 80.65-23.85 80.65 0 76.2 0ZM127.79 0.6Q119.64 0.6 115.17-3.88 110.69-8.35 110.69-17.15L110.69-17.15Q110.69-25.95 115.17-30.43 119.64-34.9 127.79-34.9L127.79-34.9Q135.99-34.9 140.47-30.43 144.94-25.95 144.94-17.15L144.94-17.15Q144.94-8.4 140.47-3.9 135.99 0.6 127.79 0.6L127.79 0.6ZM127.79-3.45Q133.74-3.45 136.89-6.68 140.04-9.9 140.04-16.95L140.04-16.95 140.04-17.15Q139.99-24.3 136.84-27.58 133.69-30.85 127.79-30.85L127.79-30.85Q121.94-30.85 118.79-27.58 115.64-24.3 115.59-17.15L115.59-17.15 115.59-16.95Q115.59-9.9 118.74-6.68 121.89-3.45 127.79-3.45L127.79-3.45Z" opacity="1" transform="matrix(1,0,0,1,0,0)" fill="#0080ff" class="undefined-text-0" data-fill-palette-color="primary" id="text-0"></path></svg></g></svg></g></svg></g></svg></g><g transform="matrix(1,0,0,1,419.028749453617,0)"><svg viewBox="0 0 156.20912857066222 137.62132425531917" height="137.62132425531917" width="156.20912857066222"><g><svg xmlns="http://www.w3.org/2000/svg" xmlns:xlink="http://www.w3.org/1999/xlink" version="1.1" x="0" y="0" viewBox="6.300000190734863 11.5 87.39999389648438 77" style="enable-background:new 0 0 100 100;" xml:space="preserve" height="137.62132425531917" width="156.20912857066222" class="icon-icon-0" data-fill-palette-color="accent" id="icon-0"><path d="M72.3 12.3L72.3 12.3 72.3 12.3l-0.4-0.8H28.2L6.3 50l21.8 38.5h43.7L93.7 50 72.3 12.3zM33.3 25.3L9.9 47.7l18.6-32.8L33.3 25.3zM70.7 14.8l6.4 35.7L36.9 25.8 70.7 14.8zM35.5 27.3l41 25.2-41 23.3V27.3zM77 54.5l-7.2 30.8-32.6-8.1L77 54.5zM33.5 75L9.9 50.5l23.6-22.7V75zM33.2 77.6l-4.6 7.7L11.5 55.1 33.2 77.6zM35 78.6l31.4 7.9H30.2L35 78.6zM79.3 53.3l11.6-2.5L72.1 84 79.3 53.3zM90.7 48.9l-11.4 2.5-5.9-33.1L90.7 48.9zM35 24.3l-5-10.8h38.2L35 24.3z" fill="#0080ff" data-fill-palette-color="accent"></path></svg></g></svg></g></svg></g><defs></defs></svg><rect width="395.52" height="94.6251772508736" fill="none" stroke="none" visibility="hidden"></rect></g></svg></g></svg>